<svg height="600" viewBox="0 0 600 600" width="600" xmlns="http://www.w3.org/2000/svg">
<rect fill="white" height="600" width="600" x="0" y="0"/>
<path d="M0,0 l0,600" stroke="black" stroke-width="1"/>
<path d="M0,0 l600,0" stroke="black" stroke-width="1"/>
<path d="M30,0 l0,600" stroke="black" stroke-width="1"/>
<path d="M0,30 l600,0" stroke="black" stroke-width="1"/>
<path d="M60,0 l0,600" stroke="black" stroke-width="1"/>
<path d="M0,60 l600,0" stroke="black" stroke-width="1"/>
<path d="M90,0 l0,600" stroke="black" stroke-width="1"/>
<path d="M0,90 l600,0" stroke="black" stroke-width="1"/>
<path d="M120,0 l0,600" stroke="black" stroke-width="1"/>
<path d="M0,120 l600,0" stroke="black" stroke-width="1"/>
<path d="M150,0 l0,600" stroke="black" stroke-width="1"/>
<path d="M0,150 l600,0" stroke="black" stroke-width="1"/>
<path d="M180,0 l0,600" stroke="black" stroke-width="1"/>
<path d="M0,180 l600,0" stroke="black" stroke-width="1"/>
<path d="M210,0 l0,600" stroke="black" stroke-width="1"/>
<path d="M0,210 l600,0" stroke="black" stroke-width="1"/>
<path d="M240,0 l0,600" stroke="black" stroke-width="1"/>
<path d="M0,240 l600,0" stroke="black" stroke-width="1"/>
<path d="M270,0 l0,600" stroke="black" stroke-width="1"/>
<path d="M0,270 l600,0" stroke="black" stroke-width="1"/>
<path d="M300,0 l0,600" stroke="black" stroke-width="1"/>
<path d="M0,300 l600,0" stroke="black" stroke-width="1"/>
<path d="M330,0 l0,600" stroke="black" stroke-width="1"/>
<path d="M0,330 l600,0" stroke="black" stroke-width="1"/>
<path d="M360,0 l0,600" stroke="black" stroke-width="1"/>
<path d="M0,360 l600,0" stroke="black" stroke-width="1"/>
<path d="M390,0 l0,600" stroke="black" stroke-width="1"/>
<path d="M0,390 l600,0" stroke="black" stroke-width="1"/>
<path d="M420,0 l0,600" stroke="black" stroke-width="1"/>
<path d="M0,420 l600,0" stroke="black" stroke-width="1"/>
<path d="M450,0 l0,600" stroke="black" stroke-width="1"/>
<path d="M0,450 l600,0" stroke="black" stroke-width="1"/>
<path d="M480,0 l0,600" stroke="black" stroke-width="1"/>
<path d="M0,480 l600,0" stroke="black" stroke-width="1"/>
<path d="M510,0 l0,600" stroke="black" stroke-width="1"/>
<path d="M0,510 l600,0" stroke="black" stroke-width="1"/>
<path d="M540,0 l0,600" stroke="black" stroke-width="1"/>
<path d="M0,540 l600,0" stroke="black" stroke-width="1"/>
<path d="M570,0 l0,600" stroke="black" stroke-width="1"/>
<path d="M0,570 l600,0" stroke="black" stroke-width="1"/>
<path d="M600,0 l0,600" stroke="black" stroke-width="1"/>
<path d="M0,600 l600,0" stroke="black" stroke-width="1"/>
<path d="M375,30 l0,30" stroke="dodgerblue" stroke-width="1"/>
<path d="M105,60 l0,30" stroke="dodgerblue" stroke-width="2"/>
<path d="M375,60 l0,30" stroke="dodgerblue" stroke-width="2"/>
<path d="M105,90 l0,30" stroke="dodgerblue" stroke-width="3"/>
<path d="M165,90 l0,30" stroke="dodgerblue" stroke-width="2"/>
<path d="M375,90 l0,30" stroke="dodgerblue" stroke-width="2"/>
<path d="M105,120 l0,30" stroke="dodgerblue" stroke-width="3"/>
<path d="M150,135 l30,0" stroke="dodgerblue" stroke-width="1"/>
<path d="M165,120 l0,30" stroke="dodgerblue" stroke-width="2"/>
<path d="M180,135 l30,0" stroke="dodgerblue" stroke-width="1"/>
<path d="M210,135 l30,0" stroke="dodgerblue" stroke-width="1"/>
<path d="M240,135 l30,0" stroke="dodgerblue" stroke-width="1"/>
<path d="M375,120 l0,30" stroke="dodgerblue" stroke-width="2"/>
<path d="M495,120 l0,30" stroke="dodgerblue" stroke-width="1"/>
<path d="M60,165 l30,0" stroke="dodgerblue" stroke-width="1"/>
<path d="M90,165 l30,0" stroke="dodgerblue" stroke-width="1"/>
<path d="M105,150 l0,30" stroke="dodgerblue" stroke-width="1"/>
<path d="M120,165 l30,0" stroke="dodgerblue" stroke-width="1"/>
<path d="M165,150 l0,30" stroke="dodgerblue" stroke-width="2"/>
<path d="M300,165 l30,0" stroke="dodgerblue" stroke-width="1"/>
<path d="M315,150 l0,30" stroke="dodgerblue" stroke-width="1"/>
<path d="M330,165 l30,0" stroke="dodgerblue" stroke-width="2"/>
<path d="M345,150 l0,30" stroke="dodgerblue" stroke-width="1"/>
<path d="M360,165 l30,0" stroke="dodgerblue" stroke-width="2"/>
<path d="M375,150 l0,30" stroke="dodgerblue" stroke-width="2"/>
<path d="M390,165 l30,0" stroke="dodgerblue" stroke-width="2"/>
<path d="M420,165 l30,0" stroke="dodgerblue" stroke-width="1"/>
<path d="M450,165 l30,0" stroke="dodgerblue" stroke-width="1"/>
<path d="M480,165 l30,0" stroke="dodgerblue" stroke-width="1"/>
<path d="M495,150 l0,30" stroke="dodgerblue" stroke-width="1"/>
<path d="M510,165 l30,0" stroke="dodgerblue" stroke-width="1"/>
<path d="M180,195 l30,0" stroke="dodgerblue" stroke-width="1"/>
<path d="M210,195 l30,0" stroke="dodgerblue" stroke-width="1"/>
<path d="M240,195 l30,0" stroke="dodgerblue" stroke-width="1"/>
<path d="M315,180 l0,30" stroke="dodgerblue" stroke-width="2"/>
<path d="M345,180 l0,30" stroke="dodgerblue" stroke-width="1"/>
<path d="M375,180 l0,30" stroke="dodgerblue" stroke-width="2"/>
<path d="M390,195 l30,0" stroke="dodgerblue" stroke-width="3"/>
<path d="M420,195 l30,0" stroke="dodgerblue" stroke-width="4"/>
<path d="M435,180 l0,30" stroke="dodgerblue" stroke-width="1"/>
<path d="M450,195 l30,0" stroke="dodgerblue" stroke-width="5"/>
<path d="M480,195 l30,0" stroke="dodgerblue" stroke-width="6"/>
<path d="M495,180 l0,30" stroke="dodgerblue" stroke-width="1"/>
<path d="M510,195 l30,0" stroke="dodgerblue" stroke-width="5"/>
<path d="M540,195 l30,0" stroke="dodgerblue" stroke-width="4"/>
<path d="M180,225 l30,0" stroke="dodgerblue" stroke-width="1"/>
<path d="M210,225 l30,0" stroke="dodgerblue" stroke-width="1"/>
<path d="M240,225 l30,0" stroke="dodgerblue" stroke-width="1"/>
<path d="M270,225 l30,0" stroke="dodgerblue" stroke-width="1"/>
<path d="M300,225 l30,0" stroke="dodgerblue" stroke-width="1"/>
<path d="M315,210 l0,30" stroke="dodgerblue" stroke-width="2"/>
<path d="M345,210 l0,30" stroke="dodgerblue" stroke-width="1"/>
<path d="M375,210 l0,30" stroke="dodgerblue" stroke-width="2"/>
<path d="M390,225 l30,0" stroke="dodgerblue" stroke-width="1"/>
<path d="M420,225 l30,0" stroke="dodgerblue" stroke-width="2"/>
<path d="M435,210 l0,30" stroke="dodgerblue" stroke-width="3"/>
<path d="M450,225 l30,0" stroke="dodgerblue" stroke-width="2"/>
<path d="M480,225 l30,0" stroke="dodgerblue" stroke-width="3"/>
<path d="M510,225 l30,0" stroke="dodgerblue" stroke-width="2"/>
<path d="M540,225 l30,0" stroke="dodgerblue" stroke-width="2"/>
<path d="M30,255 l30,0" stroke="dodgerblue" stroke-width="1"/>
<path d="M60,255 l30,0" stroke="dodgerblue" stroke-width="1"/>
<path d="M90,255 l30,0" stroke="dodgerblue" stroke-width="2"/>
<path d="M120,255 l30,0" stroke="dodgerblue" stroke-width="1"/>
<path d="M135,240 l0,30" stroke="dodgerblue" stroke-width="1"/>
<path d="M150,255 l30,0" stroke="dodgerblue" stroke-width="1"/>
<path d="M270,255 l30,0" stroke="dodgerblue" stroke-width="1"/>
<path d="M300,255 l30,0" stroke="dodgerblue" stroke-width="1"/>
<path d="M315,240 l0,30" stroke="dodgerblue" stroke-width="1"/>
<path d="M330,255 l30,0" stroke="dodgerblue" stroke-width="1"/>
<path d="M360,255 l30,0" stroke="dodgerblue" stroke-width="1"/>
<path d="M375,240 l0,30" stroke="dodgerblue" stroke-width="1"/>
<path d="M390,255 l30,0" stroke="dodgerblue" stroke-width="1"/>
<path d="M420,255 l30,0" stroke="dodgerblue" stroke-width="1"/>
<path d="M435,240 l0,30" stroke="dodgerblue" stroke-width="3"/>
<path d="M450,255 l30,0" stroke="dodgerblue" stroke-width="4"/>
<path d="M465,240 l0,30" stroke="dodgerblue" stroke-width="1"/>
<path d="M480,255 l30,0" stroke="dodgerblue" stroke-width="4"/>
<path d="M510,255 l30,0" stroke="dodgerblue" stroke-width="5"/>
<path d="M540,255 l30,0" stroke="dodgerblue" stroke-width="3"/>
<path d="M570,255 l30,0" stroke="dodgerblue" stroke-width="3"/>
<path d="M60,285 l30,0" stroke="dodgerblue" stroke-width="2"/>
<path d="M90,285 l30,0" stroke="dodgerblue" stroke-width="2"/>
<path d="M120,285 l30,0" stroke="dodgerblue" stroke-width="2"/>
<path d="M135,270 l0,30" stroke="dodgerblue" stroke-width="1"/>
<path d="M165,270 l0,30" stroke="dodgerblue" stroke-width="1"/>
<path d="M300,285 l30,0" stroke="dodgerblue" stroke-width="3"/>
<path d="M330,285 l30,0" stroke="dodgerblue" stroke-width="3"/>
<path d="M360,285 l30,0" stroke="dodgerblue" stroke-width="4"/>
<path d="M390,285 l30,0" stroke="dodgerblue" stroke-width="3"/>
<path d="M420,285 l30,0" stroke="dodgerblue" stroke-width="2"/>
<path d="M435,270 l0,30" stroke="dodgerblue" stroke-width="2"/>
<path d="M450,285 l30,0" stroke="dodgerblue" stroke-width="2"/>
<path d="M465,270 l0,30" stroke="dodgerblue" stroke-width="1"/>
<path d="M60,315 l30,0" stroke="dodgerblue" stroke-width="1"/>
<path d="M90,315 l30,0" stroke="dodgerblue" stroke-width="2"/>
<path d="M120,315 l30,0" stroke="dodgerblue" stroke-width="3"/>
<path d="M135,300 l0,30" stroke="dodgerblue" stroke-width="1"/>
<path d="M150,315 l30,0" stroke="dodgerblue" stroke-width="3"/>
<path d="M165,300 l0,30" stroke="dodgerblue" stroke-width="1"/>
<path d="M180,315 l30,0" stroke="dodgerblue" stroke-width="2"/>
<path d="M210,315 l30,0" stroke="dodgerblue" stroke-width="1"/>
<path d="M390,315 l30,0" stroke="dodgerblue" stroke-width="1"/>
<path d="M420,315 l30,0" stroke="dodgerblue" stroke-width="1"/>
<path d="M450,315 l30,0" stroke="dodgerblue" stroke-width="1"/>
<path d="M465,300 l0,30" stroke="dodgerblue" stroke-width="1"/>
<path d="M165,330 l0,30" stroke="dodgerblue" stroke-width="2"/>
<path d="M210,345 l30,0" stroke="dodgerblue" stroke-width="1"/>
<path d="M240,345 l30,0" stroke="dodgerblue" stroke-width="1"/>
<path d="M270,345 l30,0" stroke="dodgerblue" stroke-width="1"/>
<path d="M330,345 l30,0" stroke="dodgerblue" stroke-width="1"/>
<path d="M360,345 l30,0" stroke="dodgerblue" stroke-width="3"/>
<path d="M375,330 l0,30" stroke="dodgerblue" stroke-width="1"/>
<path d="M390,345 l30,0" stroke="dodgerblue" stroke-width="3"/>
<path d="M420,345 l30,0" stroke="dodgerblue" stroke-width="4"/>
<path d="M450,345 l30,0" stroke="dodgerblue" stroke-width="5"/>
<path d="M480,345 l30,0" stroke="dodgerblue" stroke-width="5"/>
<path d="M510,345 l30,0" stroke="dodgerblue" stroke-width="4"/>
<path d="M150,375 l30,0" stroke="dodgerblue" stroke-width="1"/>
<path d="M165,360 l0,30" stroke="dodgerblue" stroke-width="1"/>
<path d="M180,375 l30,0" stroke="dodgerblue" stroke-width="1"/>
<path d="M210,375 l30,0" stroke="dodgerblue" stroke-width="1"/>
<path d="M225,360 l0,30" stroke="dodgerblue" stroke-width="2"/>
<path d="M270,375 l30,0" stroke="dodgerblue" stroke-width="1"/>
<path d="M300,375 l30,0" stroke="dodgerblue" stroke-width="1"/>
<path d="M330,375 l30,0" stroke="dodgerblue" stroke-width="2"/>
<path d="M360,375 l30,0" stroke="dodgerblue" stroke-width="2"/>
<path d="M375,360 l0,30" stroke="dodgerblue" stroke-width="1"/>
<path d="M390,375 l30,0" stroke="dodgerblue" stroke-width="2"/>
<path d="M420,375 l30,0" stroke="dodgerblue" stroke-width="1"/>
<path d="M60,405 l30,0" stroke="dodgerblue" stroke-width="1"/>
<path d="M90,405 l30,0" stroke="dodgerblue" stroke-width="1"/>
<path d="M120,405 l30,0" stroke="dodgerblue" stroke-width="3"/>
<path d="M150,405 l30,0" stroke="dodgerblue" stroke-width="4"/>
<path d="M165,390 l0,30" stroke="dodgerblue" stroke-width="1"/>
<path d="M180,405 l30,0" stroke="dodgerblue" stroke-width="4"/>
<path d="M195,390 l0,30" stroke="dodgerblue" stroke-width="1"/>
<path d="M210,405 l30,0" stroke="dodgerblue" stroke-width="3"/>
<path d="M225,390 l0,30" stroke="dodgerblue" stroke-width="2"/>
<path d="M330,405 l30,0" stroke="dodgerblue" stroke-width="1"/>
<path d="M360,405 l30,0" stroke="dodgerblue" stroke-width="1"/>
<path d="M375,390 l0,30" stroke="dodgerblue" stroke-width="1"/>
<path d="M390,405 l30,0" stroke="dodgerblue" stroke-width="2"/>
<path d="M420,405 l30,0" stroke="dodgerblue" stroke-width="2"/>
<path d="M450,405 l30,0" stroke="dodgerblue" stroke-width="2"/>
<path d="M480,405 l30,0" stroke="dodgerblue" stroke-width="1"/>
<path d="M150,435 l30,0" stroke="dodgerblue" stroke-width="3"/>
<path d="M180,435 l30,0" stroke="dodgerblue" stroke-width="3"/>
<path d="M195,420 l0,30" stroke="dodgerblue" stroke-width="1"/>
<path d="M210,435 l30,0" stroke="dodgerblue" stroke-width="3"/>
<path d="M225,420 l0,30" stroke="dodgerblue" stroke-width="2"/>
<path d="M240,435 l30,0" stroke="dodgerblue" stroke-width="2"/>
<path d="M270,435 l30,0" stroke="dodgerblue" stroke-width="1"/>
<path d="M300,435 l30,0" stroke="dodgerblue" stroke-width="2"/>
<path d="M330,435 l30,0" stroke="dodgerblue" stroke-width="3"/>
<path d="M360,435 l30,0" stroke="dodgerblue" stroke-width="5"/>
<path d="M375,420 l0,30" stroke="dodgerblue" stroke-width="1"/>
<path d="M390,435 l30,0" stroke="dodgerblue" stroke-width="5"/>
<path d="M420,435 l30,0" stroke="dodgerblue" stroke-width="5"/>
<path d="M450,435 l30,0" stroke="dodgerblue" stroke-width="3"/>
<path d="M465,420 l0,30" stroke="dodgerblue" stroke-width="1"/>
<path d="M30,465 l30,0" stroke="dodgerblue" stroke-width="1"/>
<path d="M60,465 l30,0" stroke="dodgerblue" stroke-width="3"/>
<path d="M90,465 l30,0" stroke="dodgerblue" stroke-width="3"/>
<path d="M120,465 l30,0" stroke="dodgerblue" stroke-width="2"/>
<path d="M150,465 l30,0" stroke="dodgerblue" stroke-width="1"/>
<path d="M180,465 l30,0" stroke="dodgerblue" stroke-width="4"/>
<path d="M195,450 l0,30" stroke="dodgerblue" stroke-width="1"/>
<path d="M210,465 l30,0" stroke="dodgerblue" stroke-width="4"/>
<path d="M240,465 l30,0" stroke="dodgerblue" stroke-width="3"/>
<path d="M270,465 l30,0" stroke="dodgerblue" stroke-width="1"/>
<path d="M300,465 l30,0" stroke="dodgerblue" stroke-width="1"/>
<path d="M375,450 l0,30" stroke="dodgerblue" stroke-width="2"/>
<path d="M390,465 l30,0" stroke="dodgerblue" stroke-width="1"/>
<path d="M420,465 l30,0" stroke="dodgerblue" stroke-width="2"/>
<path d="M450,465 l30,0" stroke="dodgerblue" stroke-width="2"/>
<path d="M465,450 l0,30" stroke="dodgerblue" stroke-width="1"/>
<path d="M480,465 l30,0" stroke="dodgerblue" stroke-width="2"/>
<path d="M510,465 l30,0" stroke="dodgerblue" stroke-width="2"/>
<path d="M210,495 l30,0" stroke="dodgerblue" stroke-width="1"/>
<path d="M240,495 l30,0" stroke="dodgerblue" stroke-width="1"/>
<path d="M270,495 l30,0" stroke="dodgerblue" stroke-width="1"/>
<path d="M360,495 l30,0" stroke="dodgerblue" stroke-width="1"/>
<path d="M375,480 l0,30" stroke="dodgerblue" stroke-width="2"/>
<path d="M390,495 l30,0" stroke="dodgerblue" stroke-width="2"/>
<path d="M420,495 l30,0" stroke="dodgerblue" stroke-width="3"/>
<path d="M450,495 l30,0" stroke="dodgerblue" stroke-width="2"/>
<path d="M465,480 l0,30" stroke="dodgerblue" stroke-width="1"/>
<path d="M480,495 l30,0" stroke="dodgerblue" stroke-width="2"/>
<path d="M285,510 l0,30" stroke="dodgerblue" stroke-width="1"/>
<path d="M375,510 l0,30" stroke="dodgerblue" stroke-width="2"/>
<path d="M285,540 l0,30" stroke="dodgerblue" stroke-width="1"/>
<path d="M375,540 l0,30" stroke="dodgerblue" stroke-width="2"/>
<path d="M285,570 l0,30" stroke="dodgerblue" stroke-width="1"/>
<text font-size="25" text-anchor="middle" x="315" y="52">
E
</text>
<text font-size="25" text-anchor="middle" x="345" y="52">
C
</text>
<text font-size="25" text-anchor="middle" x="375" y="52">
H
</text>
<text font-size="25" text-anchor="middle" x="105" y="82">
A
</text>
<text font-size="25" text-anchor="middle" x="315" y="82">
H
</text>
<text font-size="25" text-anchor="middle" x="345" y="82">
H
</text>
<text font-size="25" text-anchor="middle" x="375" y="82">
C
</text>
<text font-size="25" text-anchor="middle" x="105" y="112">
F
</text>
<text font-size="25" text-anchor="middle" x="165" y="112">
A
</text>
<text font-size="25" text-anchor="middle" x="195" y="112">
B
</text>
<text font-size="25" text-anchor="middle" x="225" y="112">
C
</text>
<text font-size="25" text-anchor="middle" x="315" y="112">
G
</text>
<text font-size="25" text-anchor="middle" x="345" y="112">
H
</text>
<text font-size="25" text-anchor="middle" x="375" y="112">
C
</text>
<text font-size="25" text-anchor="middle" x="105" y="142">
C
</text>
<text font-size="25" text-anchor="middle" x="165" y="142">
G
</text>
<text font-size="25" text-anchor="middle" x="195" y="142">
E
</text>
<text font-size="25" text-anchor="middle" x="225" y="142">
A
</text>
<text font-size="25" text-anchor="middle" x="255" y="142">
D
</text>
<text font-size="25" text-anchor="middle" x="315" y="142">
A
</text>
<text font-size="25" text-anchor="middle" x="345" y="142">
H
</text>
<text font-size="25" text-anchor="middle" x="375" y="142">
D
</text>
<text font-size="25" text-anchor="middle" x="465" y="142">
E
</text>
<text font-size="25" text-anchor="middle" x="495" y="142">
E
</text>
<text font-size="25" text-anchor="middle" x="525" y="142">
C
</text>
<text font-size="25" text-anchor="middle" x="45" y="172">
D
</text>
<text font-size="25" text-anchor="middle" x="75" y="172">
E
</text>
<text font-size="25" text-anchor="middle" x="105" y="172">
E
</text>
<text font-size="25" text-anchor="middle" x="135" y="172">
B
</text>
<text font-size="25" text-anchor="middle" x="165" y="172">
E
</text>
<text font-size="25" text-anchor="middle" x="315" y="172">
G
</text>
<text font-size="25" text-anchor="middle" x="345" y="172">
D
</text>
<text font-size="25" text-anchor="middle" x="375" y="172">
D
</text>
<text font-size="25" text-anchor="middle" x="405" y="172">
F
</text>
<text font-size="25" text-anchor="middle" x="435" y="172">
B
</text>
<text font-size="25" text-anchor="middle" x="465" y="172">
G
</text>
<text font-size="25" text-anchor="middle" x="495" y="172">
E
</text>
<text font-size="25" text-anchor="middle" x="525" y="172">
B
</text>
<text font-size="25" text-anchor="middle" x="135" y="202">
C
</text>
<text font-size="25" text-anchor="middle" x="165" y="202">
D
</text>
<text font-size="25" text-anchor="middle" x="195" y="202">
H
</text>
<text font-size="25" text-anchor="middle" x="225" y="202">
E
</text>
<text font-size="25" text-anchor="middle" x="255" y="202">
G
</text>
<text font-size="25" text-anchor="middle" x="315" y="202">
C
</text>
<text font-size="25" text-anchor="middle" x="345" y="202">
G
</text>
<text font-size="25" text-anchor="middle" x="375" y="202">
A
</text>
<text font-size="25" text-anchor="middle" x="405" y="202">
G
</text>
<text font-size="25" text-anchor="middle" x="435" y="202">
F
</text>
<text font-size="25" text-anchor="middle" x="465" y="202">
C
</text>
<text font-size="25" text-anchor="middle" x="495" y="202">
G
</text>
<text font-size="25" text-anchor="middle" x="525" y="202">
E
</text>
<text font-size="25" text-anchor="middle" x="555" y="202">
H
</text>
<text font-size="25" text-anchor="middle" x="195" y="232">
H
</text>
<text font-size="25" text-anchor="middle" x="225" y="232">
B
</text>
<text font-size="25" text-anchor="middle" x="255" y="232">
G
</text>
<text font-size="25" text-anchor="middle" x="285" y="232">
G
</text>
<text font-size="25" text-anchor="middle" x="315" y="232">
C
</text>
<text font-size="25" text-anchor="middle" x="345" y="232">
G
</text>
<text font-size="25" text-anchor="middle" x="375" y="232">
A
</text>
<text font-size="25" text-anchor="middle" x="405" y="232">
G
</text>
<text font-size="25" text-anchor="middle" x="435" y="232">
A
</text>
<text font-size="25" text-anchor="middle" x="465" y="232">
H
</text>
<text font-size="25" text-anchor="middle" x="495" y="232">
H
</text>
<text font-size="25" text-anchor="middle" x="525" y="232">
G
</text>
<text font-size="25" text-anchor="middle" x="555" y="232">
B
</text>
<text font-size="25" text-anchor="middle" x="45" y="262">
E
</text>
<text font-size="25" text-anchor="middle" x="75" y="262">
B
</text>
<text font-size="25" text-anchor="middle" x="105" y="262">
F
</text>
<text font-size="25" text-anchor="middle" x="135" y="262">
E
</text>
<text font-size="25" text-anchor="middle" x="165" y="262">
C
</text>
<text font-size="25" text-anchor="middle" x="195" y="262">
D
</text>
<text font-size="25" text-anchor="middle" x="225" y="262">
G
</text>
<text font-size="25" text-anchor="middle" x="285" y="262">
H
</text>
<text font-size="25" text-anchor="middle" x="315" y="262">
D
</text>
<text font-size="25" text-anchor="middle" x="345" y="262">
B
</text>
<text font-size="25" text-anchor="middle" x="375" y="262">
C
</text>
<text font-size="25" text-anchor="middle" x="405" y="262">
H
</text>
<text font-size="25" text-anchor="middle" x="435" y="262">
G
</text>
<text font-size="25" text-anchor="middle" x="465" y="262">
E
</text>
<text font-size="25" text-anchor="middle" x="495" y="262">
D
</text>
<text font-size="25" text-anchor="middle" x="525" y="262">
A
</text>
<text font-size="25" text-anchor="middle" x="555" y="262">
E
</text>
<text font-size="25" text-anchor="middle" x="585" y="262">
E
</text>
<text font-size="25" text-anchor="middle" x="45" y="292">
A
</text>
<text font-size="25" text-anchor="middle" x="75" y="292">
G
</text>
<text font-size="25" text-anchor="middle" x="105" y="292">
F
</text>
<text font-size="25" text-anchor="middle" x="135" y="292">
G
</text>
<text font-size="25" text-anchor="middle" x="165" y="292">
H
</text>
<text font-size="25" text-anchor="middle" x="195" y="292">
G
</text>
<text font-size="25" text-anchor="middle" x="315" y="292">
D
</text>
<text font-size="25" text-anchor="middle" x="345" y="292">
H
</text>
<text font-size="25" text-anchor="middle" x="375" y="292">
B
</text>
<text font-size="25" text-anchor="middle" x="405" y="292">
B
</text>
<text font-size="25" text-anchor="middle" x="435" y="292">
E
</text>
<text font-size="25" text-anchor="middle" x="465" y="292">
B
</text>
<text font-size="25" text-anchor="middle" x="75" y="322">
G
</text>
<text font-size="25" text-anchor="middle" x="105" y="322">
G
</text>
<text font-size="25" text-anchor="middle" x="135" y="322">
G
</text>
<text font-size="25" text-anchor="middle" x="165" y="322">
E
</text>
<text font-size="25" text-anchor="middle" x="195" y="322">
C
</text>
<text font-size="25" text-anchor="middle" x="225" y="322">
A
</text>
<text font-size="25" text-anchor="middle" x="255" y="322">
B
</text>
<text font-size="25" text-anchor="middle" x="405" y="322">
C
</text>
<text font-size="25" text-anchor="middle" x="435" y="322">
A
</text>
<text font-size="25" text-anchor="middle" x="465" y="322">
F
</text>
<text font-size="25" text-anchor="middle" x="165" y="352">
D
</text>
<text font-size="25" text-anchor="middle" x="195" y="352">
B
</text>
<text font-size="25" text-anchor="middle" x="225" y="352">
E
</text>
<text font-size="25" text-anchor="middle" x="255" y="352">
C
</text>
<text font-size="25" text-anchor="middle" x="285" y="352">
G
</text>
<text font-size="25" text-anchor="middle" x="345" y="352">
A
</text>
<text font-size="25" text-anchor="middle" x="375" y="352">
F
</text>
<text font-size="25" text-anchor="middle" x="405" y="352">
H
</text>
<text font-size="25" text-anchor="middle" x="435" y="352">
C
</text>
<text font-size="25" text-anchor="middle" x="465" y="352">
G
</text>
<text font-size="25" text-anchor="middle" x="495" y="352">
E
</text>
<text font-size="25" text-anchor="middle" x="525" y="352">
H
</text>
<text font-size="25" text-anchor="middle" x="165" y="382">
B
</text>
<text font-size="25" text-anchor="middle" x="195" y="382">
H
</text>
<text font-size="25" text-anchor="middle" x="225" y="382">
C
</text>
<text font-size="25" text-anchor="middle" x="285" y="382">
D
</text>
<text font-size="25" text-anchor="middle" x="315" y="382">
G
</text>
<text font-size="25" text-anchor="middle" x="345" y="382">
A
</text>
<text font-size="25" text-anchor="middle" x="375" y="382">
H
</text>
<text font-size="25" text-anchor="middle" x="405" y="382">
H
</text>
<text font-size="25" text-anchor="middle" x="435" y="382">
G
</text>
<text font-size="25" text-anchor="middle" x="45" y="412">
F
</text>
<text font-size="25" text-anchor="middle" x="75" y="412">
A
</text>
<text font-size="25" text-anchor="middle" x="105" y="412">
H
</text>
<text font-size="25" text-anchor="middle" x="135" y="412">
C
</text>
<text font-size="25" text-anchor="middle" x="165" y="412">
A
</text>
<text font-size="25" text-anchor="middle" x="195" y="412">
F
</text>
<text font-size="25" text-anchor="middle" x="225" y="412">
C
</text>
<text font-size="25" text-anchor="middle" x="345" y="412">
B
</text>
<text font-size="25" text-anchor="middle" x="375" y="412">
A
</text>
<text font-size="25" text-anchor="middle" x="405" y="412">
G
</text>
<text font-size="25" text-anchor="middle" x="435" y="412">
C
</text>
<text font-size="25" text-anchor="middle" x="465" y="412">
C
</text>
<text font-size="25" text-anchor="middle" x="495" y="412">
B
</text>
<text font-size="25" text-anchor="middle" x="165" y="442">
A
</text>
<text font-size="25" text-anchor="middle" x="195" y="442">
H
</text>
<text font-size="25" text-anchor="middle" x="225" y="442">
E
</text>
<text font-size="25" text-anchor="middle" x="255" y="442">
B
</text>
<text font-size="25" text-anchor="middle" x="285" y="442">
A
</text>
<text font-size="25" text-anchor="middle" x="315" y="442">
G
</text>
<text font-size="25" text-anchor="middle" x="345" y="442">
H
</text>
<text font-size="25" text-anchor="middle" x="375" y="442">
G
</text>
<text font-size="25" text-anchor="middle" x="405" y="442">
F
</text>
<text font-size="25" text-anchor="middle" x="435" y="442">
G
</text>
<text font-size="25" text-anchor="middle" x="465" y="442">
A
</text>
<text font-size="25" text-anchor="middle" x="45" y="472">
A
</text>
<text font-size="25" text-anchor="middle" x="75" y="472">
B
</text>
<text font-size="25" text-anchor="middle" x="105" y="472">
G
</text>
<text font-size="25" text-anchor="middle" x="135" y="472">
C
</text>
<text font-size="25" text-anchor="middle" x="165" y="472">
A
</text>
<text font-size="25" text-anchor="middle" x="195" y="472">
B
</text>
<text font-size="25" text-anchor="middle" x="225" y="472">
G
</text>
<text font-size="25" text-anchor="middle" x="255" y="472">
C
</text>
<text font-size="25" text-anchor="middle" x="285" y="472">
A
</text>
<text font-size="25" text-anchor="middle" x="315" y="472">
H
</text>
<text font-size="25" text-anchor="middle" x="375" y="472">
F
</text>
<text font-size="25" text-anchor="middle" x="405" y="472">
A
</text>
<text font-size="25" text-anchor="middle" x="435" y="472">
B
</text>
<text font-size="25" text-anchor="middle" x="465" y="472">
H
</text>
<text font-size="25" text-anchor="middle" x="495" y="472">
D
</text>
<text font-size="25" text-anchor="middle" x="525" y="472">
G
</text>
<text font-size="25" text-anchor="middle" x="195" y="502">
H
</text>
<text font-size="25" text-anchor="middle" x="225" y="502">
A
</text>
<text font-size="25" text-anchor="middle" x="255" y="502">
E
</text>
<text font-size="25" text-anchor="middle" x="285" y="502">
A
</text>
<text font-size="25" text-anchor="middle" x="375" y="502">
E
</text>
<text font-size="25" text-anchor="middle" x="405" y="502">
E
</text>
<text font-size="25" text-anchor="middle" x="435" y="502">
A
</text>
<text font-size="25" text-anchor="middle" x="465" y="502">
H
</text>
<text font-size="25" text-anchor="middle" x="495" y="502">
C
</text>
<text font-size="25" text-anchor="middle" x="285" y="532">
E
</text>
<text font-size="25" text-anchor="middle" x="375" y="532">
H
</text>
<text font-size="25" text-anchor="middle" x="285" y="562">
C
</text>
<text font-size="25" text-anchor="middle" x="375" y="562">
B
</text>
<text font-size="25" text-anchor="middle" x="285" y="592">
A
</text>
</svg>